<?xml version="1.0" encoding="utf-8"?>
<svg viewBox="0 0.9 160 45" width="160px" height="45px" fill="none" xmlns="http://www.w3.org/2000/svg">
  <defs/>
  <g style="" transform="matrix(1.2173889875411987, 0, 0, 0.8548770546913147, -4.870287895202637, 4.213651180267334)">
    <ellipse style="fill: rgb(34, 197, 94); fill-rule: nonzero; paint-order: stroke;" cx="18.259" cy="43.185" rx="5.414" ry="3.032"/>
    <rect x="12.848" y="29.035" width="10.83" height="14.296" style="paint-order: fill; fill: rgb(34, 197, 94);"/>
  </g>
  <path d="M 44.12 23.16 Q 41.65 23.16 39.58 22.39 Q 37.51 21.62 35.98 20.2 Q 34.46 18.78 33.62 16.83 Q 32.78 14.89 32.78 12.54 Q 32.78 10.19 33.62 8.25 Q 34.46 6.31 36 4.89 Q 37.54 3.46 39.64 2.7 Q 41.74 1.93 44.26 1.93 Q 47.28 1.93 49.64 2.94 Q 52.01 3.96 53.54 5.84 L 49.16 9.7 Q 48.21 8.6 47.09 8.03 Q 45.97 7.47 44.61 7.47 Q 43.48 7.47 42.57 7.81 Q 41.65 8.16 41.02 8.83 Q 40.38 9.5 40.03 10.42 Q 39.68 11.35 39.68 12.54 Q 39.68 13.67 40.03 14.62 Q 40.38 15.56 41.02 16.22 Q 41.65 16.89 42.54 17.25 Q 43.42 17.62 44.52 17.62 Q 45.68 17.62 46.79 17.23 Q 47.89 16.83 49.14 15.88 L 52.96 20.57 Q 51.11 21.82 48.73 22.49 Q 46.35 23.16 44.12 23.16 Z M 47.02 19.7 L 47.02 11.99 L 52.96 11.99 L 52.96 20.57 Z" transform="matrix(1.418968915939331, 0, 0, 1.3596839904785156, -44.749542236328125, 0.6739739775657654)" style="fill: rgb(26, 32, 44);"/>
  <path d="M 49.35 32.49 Q 47.03 32.49 45.07 31.75 Q 43.11 31.01 41.68 29.64 Q 40.25 28.27 39.45 26.42 Q 38.65 24.57 38.65 22.36 Q 38.65 20.15 39.45 18.3 Q 40.25 16.45 41.71 15.08 Q 43.16 13.71 45.12 12.96 Q 47.08 12.22 49.44 12.22 Q 52.04 12.22 54.13 13.09 Q 56.21 13.96 57.64 15.61 L 54.76 18.3 Q 53.66 17.15 52.4 16.6 Q 51.14 16.06 49.63 16.06 Q 48.23 16.06 47.06 16.52 Q 45.88 16.98 45.02 17.82 Q 44.17 18.66 43.71 19.81 Q 43.25 20.96 43.25 22.36 Q 43.25 23.7 43.71 24.86 Q 44.17 26.03 45.02 26.87 Q 45.88 27.71 47.04 28.18 Q 48.2 28.66 49.6 28.66 Q 50.95 28.66 52.22 28.21 Q 53.5 27.76 54.7 26.73 L 57.28 30 Q 55.65 31.23 53.55 31.86 Q 51.45 32.49 49.35 32.49 Z M 53.13 29.41 L 53.13 22.05 L 57.28 22.05 L 57.28 30 Z M 68.63 32.38 Q 66.06 32.38 64.13 31.37 Q 62.19 30.37 61.13 28.62 Q 60.07 26.87 60.07 24.63 Q 60.07 22.39 61.09 20.62 Q 62.11 18.86 63.94 17.86 Q 65.78 16.87 68.07 16.87 Q 70.29 16.87 72.06 17.82 Q 73.84 18.77 74.88 20.51 Q 75.91 22.25 75.91 24.68 Q 75.91 24.93 75.89 25.26 Q 75.86 25.58 75.83 25.86 L 63.59 25.86 L 63.59 23.31 L 73.53 23.31 L 71.83 24.07 Q 71.85 22.89 71.38 22.02 Q 70.9 21.15 70.06 20.66 Q 69.22 20.17 68.1 20.17 Q 66.98 20.17 66.13 20.66 Q 65.27 21.15 64.8 22.04 Q 64.32 22.92 64.32 24.12 L 64.32 24.79 Q 64.32 26.05 64.88 26.98 Q 65.44 27.9 66.42 28.39 Q 67.4 28.88 68.77 28.88 Q 69.95 28.88 70.86 28.52 Q 71.77 28.15 72.53 27.43 L 74.85 29.95 Q 73.81 31.12 72.25 31.75 Q 70.68 32.38 68.63 32.38 Z M 87.99 16.87 Q 89.78 16.87 91.19 17.58 Q 92.61 18.3 93.42 19.77 Q 94.23 21.24 94.23 23.53 L 94.23 32.16 L 89.86 32.16 L 89.86 24.21 Q 89.86 22.39 89.06 21.52 Q 88.27 20.65 86.81 20.65 Q 85.77 20.65 84.95 21.1 Q 84.12 21.55 83.66 22.41 Q 83.2 23.28 83.2 24.71 L 83.2 32.16 L 78.83 32.16 L 78.83 17.09 L 83 17.09 L 83 21.27 L 82.22 20.01 Q 83.03 18.49 84.54 17.68 Q 86.05 16.87 87.99 16.87 Z" style="fill: rgb(26, 32, 44);"/>
  <path d="M 102.67 20.43 L 112.1 20.43 L 112.1 23.98 L 102.67 23.98 Z M 103 28.52 L 113.67 28.52 L 113.67 32.16 L 98.5 32.16 L 98.5 12.56 L 113.31 12.56 L 113.31 16.2 L 103 16.2 Z M 123.33 32.38 Q 121.2 32.38 119.49 31.42 Q 117.78 30.45 116.8 28.71 Q 115.82 26.98 115.82 24.63 Q 115.82 22.27 116.8 20.54 Q 117.78 18.8 119.49 17.84 Q 121.2 16.87 123.33 16.87 Q 125.23 16.87 126.66 17.71 Q 128.09 18.55 128.87 20.26 Q 129.66 21.97 129.66 24.63 Q 129.66 27.26 128.9 28.99 Q 128.14 30.73 126.73 31.56 Q 125.32 32.38 123.33 32.38 Z M 124.06 28.8 Q 125.15 28.8 126.02 28.31 Q 126.88 27.82 127.4 26.87 Q 127.92 25.91 127.92 24.63 Q 127.92 23.31 127.4 22.39 Q 126.88 21.46 126.02 20.97 Q 125.15 20.48 124.06 20.48 Q 122.99 20.48 122.12 20.97 Q 121.26 21.46 120.74 22.39 Q 120.22 23.31 120.22 24.63 Q 120.22 25.91 120.74 26.87 Q 121.26 27.82 122.12 28.31 Q 122.99 28.8 124.06 28.8 Z M 128.03 32.16 L 128.03 29.08 L 128.12 24.6 L 127.84 20.15 L 127.84 11.38 L 132.2 11.38 L 132.2 32.16 Z M 142.61 32.38 Q 140.7 32.38 139.25 31.65 Q 137.79 30.93 136.98 29.41 Q 136.17 27.9 136.17 25.61 L 136.17 17.09 L 140.53 17.09 L 140.53 24.93 Q 140.53 26.84 141.33 27.72 Q 142.13 28.6 143.59 28.6 Q 144.59 28.6 145.38 28.15 Q 146.16 27.71 146.62 26.81 Q 147.09 25.91 147.09 24.57 L 147.09 17.09 L 151.43 17.09 L 151.43 32.16 L 147.28 32.16 L 147.28 27.99 L 148.04 29.22 Q 147.25 30.79 145.8 31.58 Q 144.34 32.38 142.61 32.38 Z" style="fill: rgb(34, 197, 94);"/>
</svg>