<?xml version="1.0" encoding="utf-8"?>
<svg viewBox="0 0 32 45" width="32px" height="45px" fill="none" xmlns="http://www.w3.org/2000/svg">
  <defs/>
  <g style="" transform="matrix(1.2173889875411987, 0, 0, 0.8548769950866699, -6.176949977874756, 1.794631004333496)">
    <ellipse style="fill: rgb(34, 197, 94); fill-rule: nonzero; paint-order: stroke;" cx="18.259" cy="43.185" rx="5.414" ry="3.032"/>
    <rect x="12.848" y="29.035" width="10.83" height="14.296" style="paint-order: fill; fill: rgb(34, 197, 94);"/>
  </g>
  <path d="M 44.12 23.16 Q 41.65 23.16 39.58 22.39 Q 37.51 21.62 35.98 20.2 Q 34.46 18.78 33.62 16.83 Q 32.78 14.89 32.78 12.54 Q 32.78 10.19 33.62 8.25 Q 34.46 6.31 36 4.89 Q 37.54 3.46 39.64 2.7 Q 41.74 1.93 44.26 1.93 Q 47.28 1.93 49.64 2.94 Q 52.01 3.96 53.54 5.84 L 49.16 9.7 Q 48.21 8.6 47.09 8.03 Q 45.97 7.47 44.61 7.47 Q 43.48 7.47 42.57 7.81 Q 41.65 8.16 41.02 8.83 Q 40.38 9.5 40.03 10.42 Q 39.68 11.35 39.68 12.54 Q 39.68 13.67 40.03 14.62 Q 40.38 15.56 41.02 16.22 Q 41.65 16.89 42.54 17.25 Q 43.42 17.62 44.52 17.62 Q 45.68 17.62 46.79 17.23 Q 47.89 16.83 49.14 15.88 L 52.96 20.57 Q 51.11 21.82 48.73 22.49 Q 46.35 23.16 44.12 23.16 Z M 47.02 19.7 L 47.02 11.99 L 52.96 11.99 L 52.96 20.57 Z" transform="matrix(1.418969, 0, 0, 1.359684, -46.056206, -1.745046)" style="fill: rgb(255, 255, 255);"/>
</svg>